# xmcd
#
# Track frame offsets:
#	150
#	18680
#	35622
#	56677
#	73237
#	97415
#	122680
#	147562
#	163012
#	200875
#
# Disc length: 3060 seconds
#
# Revision: 1
# Processed by: cddbd v1.5.2PL0 Copyright (c) Steve Scherf et al.
# Submitted via: audiograbber 1.83.01
#
DISCID=a50bf20a
DTITLE=The Eagles - The BBC Session 73
DYEAR=1973
DGENRE=country
TTITLE0=Train Leaves Here Morning
TTITLE1=Saturday Night?
TTITLE2=Peaceful Easy Feeling
TTITLE3=Certain Kind of Fool
TTITLE4=Early Bird
TTITLE5=Witchy Woman
TTITLE6=Take It Easy
TTITLE7=Out of Control
TTITLE8=Early Bird (Alternate)
TTITLE9=Already Gone
EXTD=
EXTT0=
EXTT1=
EXTT2=
EXTT3=
EXTT4=
EXTT5=
EXTT6=
EXTT7=
EXTT8=
EXTT9=
PLAYORDER=
